<svg width="89" height="26" viewBox="0 0 89 26" fill="none" xmlns="http://www.w3.org/2000/svg">
<path fill-rule="evenodd" clip-rule="evenodd" d="M18.9261 0.878662C21.4952 0.878662 23.6387 2.70099 24.1344 5.12356C24.2052 5.46965 24.2424 5.82797 24.2424 6.19499V19.8048C24.2424 22.7409 21.8622 25.1211 18.9261 25.1211H5.31633C4.73504 25.1211 4.17557 25.0278 3.65202 24.8555C1.53106 24.157 0 22.1597 0 19.8048V6.19499C0 3.25887 2.38021 0.878662 5.31633 0.878662H18.9261ZM16.7698 2.57989H18.9261C20.6879 2.57989 22.1554 3.84028 22.4761 5.50859C21.4531 5.62451 20.2835 5.5171 19.0484 4.98782C17.9541 4.51875 17.2281 3.64975 16.7698 2.57989ZM11.722 2.57989H14.9533C15.4903 4.19595 16.5186 5.7545 18.3783 6.55148C19.8701 7.1908 21.2868 7.33911 22.5412 7.21454V8.95283C20.8381 9.49199 19.1409 9.71019 17.7829 9.31272C17.1083 9.11529 16.3343 8.59112 15.5013 7.76654C14.6798 6.95325 13.8601 5.90723 13.086 4.76383C12.605 4.0533 12.1469 3.31314 11.722 2.57989ZM9.76829 2.57989H7.51712C7.61973 4.50497 7.16614 6.85638 5.47882 9.23848C4.36094 10.8167 3.03898 11.6846 1.70123 12.0723V15.4639C2.50731 14.9744 3.45627 14.3058 4.56732 13.4031C7.19251 11.2701 9.26018 10.4214 10.828 10.2662C12.3868 10.1118 13.4949 10.6525 13.983 11.3359C14.4955 12.0534 14.7851 13.0148 14.8942 14.0287C15.0046 15.055 14.9374 16.1997 14.6783 17.3357C14.1639 19.5941 12.8576 21.9447 10.5043 23.2119C10.3762 23.281 10.2469 23.3504 10.1166 23.4199H12.7609C13.795 22.107 14.6226 20.8026 14.9195 19.7803C15.2544 18.6263 15.392 17.4029 15.5205 16.2592L15.5207 16.259V16.2586C15.5668 15.848 15.6119 15.4473 15.6644 15.0639C15.7556 14.3996 15.8815 13.6957 16.1518 13.1881C16.2949 12.9195 16.5223 12.6205 16.888 12.4478C17.2731 12.266 17.674 12.2884 18.0255 12.4055C19.0109 12.7341 20.3209 12.8021 22.5412 12.2458V10.7284C20.8289 11.2109 18.962 11.4304 17.3048 10.9454C16.2356 10.6325 15.2206 9.88253 14.3045 8.97552C13.3769 8.05724 12.4876 6.91427 11.6774 5.71758C10.9843 4.69396 10.3392 3.61591 9.76829 2.57989ZM22.5412 13.9955C20.4259 14.4797 18.9048 14.4595 17.6183 14.0615C17.5232 14.2841 17.4345 14.6788 17.3499 15.2953C17.3078 15.6015 17.2689 15.9496 17.2266 16.326C17.0951 17.499 16.9329 18.9467 16.5531 20.2546C16.2622 21.257 15.6327 22.3583 14.8846 23.4199H16.5961C16.9118 22.6348 17.2025 21.8871 17.4309 21.2587C17.6763 20.5833 17.8299 20.0976 17.8794 19.8505C17.9732 19.3812 18.152 18.8761 18.5716 18.5182C19.008 18.1457 19.5438 18.0657 20.0459 18.0912C20.5403 18.1165 21.12 18.2497 21.7739 18.4372C22.0117 18.5053 22.2673 18.5831 22.5412 18.6697V13.9955ZM22.4859 20.4383C22.0419 20.2941 21.651 20.1718 21.3048 20.0725C20.673 19.8911 20.2492 19.805 19.9596 19.7903C19.7725 19.7808 19.6967 19.8039 19.6751 19.8135C19.6627 19.828 19.6023 19.9103 19.5477 20.1842C19.4694 20.575 19.2714 21.1747 19.0299 21.8397C18.8566 22.3169 18.6505 22.8549 18.4274 23.4199H18.9261C20.7066 23.4199 22.1865 22.1327 22.4859 20.4383ZM6.44588 23.4199C7.55997 22.8453 8.68446 22.2597 9.69779 21.714C11.4913 20.7483 12.5773 18.8993 13.0197 16.9578C13.2393 15.9938 13.2916 15.0384 13.2027 14.2107C13.1124 13.3705 12.8838 12.7239 12.5986 12.3247C12.5552 12.2639 12.1216 11.8477 10.9956 11.9592C9.8787 12.0697 8.11861 12.7096 5.64012 14.7234C4.08862 15.9841 2.79024 16.8476 1.70123 17.4186V19.3372C1.96968 19.0916 2.27282 18.8863 2.55297 18.7113C2.83837 18.5329 3.14935 18.3575 3.45498 18.1861L3.53072 18.1435C3.81621 17.9836 4.09957 17.8248 4.38095 17.6564C4.99648 17.2876 5.54995 16.9025 5.97553 16.4544C6.71238 15.6787 7.77592 14.753 8.77579 14.121C9.26906 13.809 9.80178 13.5332 10.3044 13.4067C10.7762 13.2878 11.5075 13.2396 12.0172 13.8222C12.5023 14.3766 12.7032 15.2081 12.35 16.2873C12.0144 17.3125 11.1717 18.6067 9.54271 20.2901C7.85184 22.0372 6.1609 22.9125 4.73532 23.1915C4.57453 23.223 4.41636 23.2468 4.26138 23.2636C4.59512 23.3652 4.94933 23.4199 5.31633 23.4199H6.44588ZM1.70123 10.2724C2.52545 9.93052 3.34659 9.30549 4.09058 8.25513C5.55963 6.18119 5.91463 4.17013 5.81353 2.57989H5.31633C3.31975 2.57989 1.70123 4.19843 1.70123 6.19499V10.2724ZM19.6734 19.8144C19.6693 19.8163 19.6676 19.8176 19.6678 19.8176C19.668 19.8178 19.6689 19.8173 19.6704 19.8163L19.6714 19.8156L19.6734 19.8144ZM9.68476 15.559C8.82808 16.1004 7.8713 16.9289 7.20899 17.6262C6.62459 18.2414 5.91548 18.7203 5.25509 19.1158C4.95161 19.2974 4.64728 19.468 4.36522 19.6262L4.28709 19.67C3.97798 19.8433 3.70082 20 3.45457 20.154C2.92358 20.4857 2.70161 20.709 2.63203 20.8517C2.61208 20.8927 2.6097 20.9161 2.61587 20.9518C2.62461 21.0029 2.66123 21.1205 2.80692 21.3146L2.82108 21.3336L2.83418 21.3531C2.83499 21.3542 2.85415 21.3808 2.91503 21.418C2.97791 21.4565 3.07524 21.4999 3.21349 21.5339C3.49132 21.6024 3.89574 21.6221 4.40868 21.5218C5.42865 21.3223 6.82126 20.6558 8.3202 19.1069C9.88108 17.4941 10.5159 16.4215 10.7332 15.7582C10.8625 15.3631 10.8359 15.1492 10.7947 15.0399C10.7738 15.0437 10.7492 15.049 10.72 15.0565C10.4744 15.1183 10.1198 15.284 9.68476 15.559ZM10.8861 15.0318C10.8857 15.0324 10.8806 15.0324 10.8721 15.0307C10.8821 15.0305 10.8865 15.0314 10.8861 15.0318Z" fill="white"/>
<path d="M39.3393 17.0818H34.2848L33.4484 19.5H30.7757L35.3393 6.79091H38.303L42.8666 19.5H40.1757L39.3393 17.0818ZM38.6484 15.0455L36.8121 9.73636L34.9757 15.0455H38.6484ZM45.8633 8.22727C45.4149 8.22727 45.0391 8.08788 44.7361 7.80909C44.4452 7.51818 44.2997 7.16061 44.2997 6.73636C44.2997 6.31212 44.4452 5.96061 44.7361 5.68182C45.0391 5.39091 45.4149 5.24545 45.8633 5.24545C46.3118 5.24545 46.6815 5.39091 46.9724 5.68182C47.2755 5.96061 47.427 6.31212 47.427 6.73636C47.427 7.16061 47.2755 7.51818 46.9724 7.80909C46.6815 8.08788 46.3118 8.22727 45.8633 8.22727ZM47.1179 9.42727V19.5H44.5724V9.42727H47.1179ZM52.1783 10.9909C52.5055 10.4576 52.9298 10.0394 53.451 9.73636C53.9843 9.43333 54.5904 9.28182 55.2692 9.28182V11.9545H54.5964C53.7964 11.9545 53.1904 12.1424 52.7783 12.5182C52.3783 12.8939 52.1783 13.5485 52.1783 14.4818V19.5H49.6328V9.42727H52.1783V10.9909ZM59.9473 11.5182V16.3909C59.9473 16.7303 60.0261 16.9788 60.1837 17.1364C60.3534 17.2818 60.6321 17.3545 61.02 17.3545H62.2018V19.5H60.6018C58.4564 19.5 57.3837 18.4576 57.3837 16.3727V11.5182H56.1837V9.42727H57.3837V6.93636H59.9473V9.42727H62.2018V11.5182H59.9473ZM66.5781 10.9909C66.9054 10.4576 67.3296 10.0394 67.8508 9.73636C68.3842 9.43333 68.9902 9.28182 69.669 9.28182V11.9545H68.9963C68.1963 11.9545 67.5902 12.1424 67.1781 12.5182C66.7781 12.8939 66.5781 13.5485 66.5781 14.4818V19.5H64.0327V9.42727H66.5781V10.9909ZM72.6744 8.22727C72.2259 8.22727 71.8502 8.08788 71.5472 7.80909C71.2562 7.51818 71.1108 7.16061 71.1108 6.73636C71.1108 6.31212 71.2562 5.96061 71.5472 5.68182C71.8502 5.39091 72.2259 5.24545 72.6744 5.24545C73.1229 5.24545 73.4926 5.39091 73.7835 5.68182C74.0865 5.96061 74.2381 6.31212 74.2381 6.73636C74.2381 7.16061 74.0865 7.51818 73.7835 7.80909C73.4926 8.08788 73.1229 8.22727 72.6744 8.22727ZM73.929 9.42727V19.5H71.3835V9.42727H73.929ZM78.9893 10.8818C79.3166 10.4212 79.7651 10.0394 80.3348 9.73636C80.9166 9.42121 81.5772 9.26364 82.3166 9.26364C83.1772 9.26364 83.953 9.47576 84.6439 9.9C85.3469 10.3242 85.8984 10.9303 86.2984 11.7182C86.7106 12.4939 86.9166 13.397 86.9166 14.4273C86.9166 15.4576 86.7106 16.3727 86.2984 17.1727C85.8984 17.9606 85.3469 18.5727 84.6439 19.0091C83.953 19.4455 83.1772 19.6636 82.3166 19.6636C81.5772 19.6636 80.9227 19.5121 80.353 19.2091C79.7954 18.9061 79.3409 18.5242 78.9893 18.0636V24.3H76.4439V9.42727H78.9893V10.8818ZM84.3166 14.4273C84.3166 13.8212 84.1893 13.3 83.9348 12.8636C83.6924 12.4152 83.3651 12.0758 82.953 11.8455C82.553 11.6152 82.1166 11.5 81.6439 11.5C81.1833 11.5 80.7469 11.6212 80.3348 11.8636C79.9348 12.0939 79.6075 12.4333 79.353 12.8818C79.1106 13.3303 78.9893 13.8576 78.9893 14.4636C78.9893 15.0697 79.1106 15.597 79.353 16.0455C79.6075 16.4939 79.9348 16.8394 80.3348 17.0818C80.7469 17.3121 81.1833 17.4273 81.6439 17.4273C82.1166 17.4273 82.553 17.3061 82.953 17.0636C83.3651 16.8212 83.6924 16.4758 83.9348 16.0273C84.1893 15.5788 84.3166 15.0455 84.3166 14.4273Z" fill="white"/>
</svg>
